<svg xmlns="http://www.w3.org/2000/svg"  viewBox="0 0 50 50" width="50px" height="50px"><path d="M25,2C12.318,2,2,12.317,2,25s10.318,23,23,23s23-10.317,23-23S37.682,2,25,2z M37.529,34.884l-3.336-5.337	c0.685-1.377,1.08-2.923,1.08-4.566c0-5.674-4.6-10.274-10.274-10.274s-10.274,4.6-10.274,10.274c0,5.674,4.6,10.274,10.274,10.274	c1.242,0,2.427-0.233,3.527-0.639l-1.495-2.392l4.08-2.55l6.14,9.824c-1.223,1.036-2.584,1.907-4.042,2.61l-1.619-2.591	c-2.01,0.919-4.235,1.446-6.59,1.446c-8.826,0-15.982-7.155-15.982-15.982C9.018,16.155,16.174,9,25,9s15.982,7.155,15.982,15.982	C40.982,28.725,39.685,32.16,37.529,34.884z M30.813,22.541l-5.272,6.406c-0.237,0.289-0.592,0.456-0.965,0.456	c-0.015,0-0.03,0-0.046-0.001c-0.389-0.014-0.75-0.209-0.975-0.527l-2.125-3.004c-0.398-0.563-0.265-1.344,0.299-1.742	c0.562-0.398,1.343-0.267,1.742,0.299l1.18,1.667l4.232-5.142c0.438-0.532,1.226-0.61,1.759-0.171	C31.175,21.221,31.252,22.009,30.813,22.541z"/></svg>